<svg width="415" height="165" viewBox="0 0 415 165" fill="none" xmlns="http://www.w3.org/2000/svg">
<g style="mix-blend-mode:multiply" filter="url(#filter0_f)">
<rect x="71" y="72" width="273" height="22" rx="11" fill="#B1AFBA"/>
</g>
<rect x="50" width="315" height="80" rx="8" fill="white"/>
<g clip-path="url(#clip0)">
<path d="M121.461 36.4536V42.7778H123.092C123.974 42.7778 124.666 42.6924 125.406 42.171C126.24 41.5831 126.676 40.6729 126.676 39.6204C126.676 38.568 126.231 37.6483 125.463 37.0699C124.761 36.5484 123.993 36.4536 123.111 36.4536H121.461ZM122.694 37.5155H123.073C123.49 37.5155 124.116 37.5535 124.628 37.9327C125.131 38.312 125.406 38.9567 125.406 39.6204C125.406 40.2936 125.121 40.9384 124.619 41.2987C124.069 41.6969 123.386 41.7158 123.073 41.7158H122.694V37.5155ZM127.813 36.4536V42.7778H129.046V40.2367H129.197L130.885 42.7778H132.421L130.449 40.1135C130.752 40.0566 130.98 39.9523 131.141 39.8385C131.634 39.5067 131.881 38.9662 131.881 38.3499C131.881 37.8758 131.739 37.3354 131.255 36.9277C130.961 36.6812 130.515 36.4536 129.643 36.4536H127.813ZM129.046 37.4587H129.416C129.643 37.4587 130.61 37.4681 130.61 38.4068C130.61 39.336 129.634 39.3644 129.397 39.3644H129.046V37.4587ZM133.258 36.4536V42.7778H134.49V36.4536H133.258ZM135.934 36.4536V42.7778H138.057C138.607 42.7778 139.186 42.683 139.66 42.2658C140.096 41.877 140.2 41.3555 140.2 40.9858C140.2 40.6539 140.124 40.1609 139.745 39.8006C139.584 39.6489 139.337 39.4687 138.92 39.4024C139.091 39.3075 139.631 38.9757 139.631 38.1603C139.631 37.6293 139.413 37.1363 139.043 36.8518C138.531 36.4536 137.849 36.4536 137.498 36.4536H135.934ZM137.166 37.4587H137.526C138.029 37.4587 138.475 37.6767 138.475 38.2551C138.475 39.061 137.707 39.08 137.517 39.08H137.166V37.4587ZM137.166 40.0281H137.621C137.887 40.0281 138.2 40.0281 138.465 40.1514C138.863 40.3315 138.93 40.6729 138.93 40.872C138.93 41.1185 138.844 41.4219 138.541 41.6021C138.266 41.7633 137.925 41.7727 137.697 41.7727H137.166V40.0281ZM141.341 36.4536V42.7778H143.465C144.015 42.7778 144.593 42.683 145.067 42.2658C145.503 41.877 145.608 41.3555 145.608 40.9858C145.608 40.6539 145.532 40.1609 145.153 39.8006C144.991 39.6489 144.745 39.4687 144.328 39.4024C144.498 39.3075 145.039 38.9757 145.039 38.1603C145.039 37.6293 144.821 37.1363 144.451 36.8518C143.939 36.4536 143.256 36.4536 142.905 36.4536H141.341ZM142.574 37.4587H142.934C143.436 37.4587 143.882 37.6767 143.882 38.2551C143.882 39.061 143.114 39.08 142.924 39.08H142.574V37.4587ZM142.574 40.0281H143.029C143.294 40.0281 143.607 40.0281 143.873 40.1514C144.271 40.3315 144.337 40.6729 144.337 40.872C144.337 41.1185 144.252 41.4219 143.948 41.6021C143.673 41.7633 143.332 41.7727 143.105 41.7727H142.574V40.0281ZM146.748 36.4536V42.7778H148.872C149.422 42.7778 150.001 42.683 150.475 42.2658C150.911 41.877 151.015 41.3555 151.015 40.9858C151.015 40.6539 150.939 40.1609 150.56 39.8006C150.399 39.6489 150.152 39.4687 149.735 39.4024C149.906 39.3075 150.446 38.9757 150.446 38.1603C150.446 37.6293 150.228 37.1363 149.858 36.8518C149.346 36.4536 148.664 36.4536 148.313 36.4536H146.748ZM147.981 37.4587H148.341C148.844 37.4587 149.289 37.6767 149.289 38.2551C149.289 39.061 148.521 39.08 148.332 39.08H147.981V37.4587ZM147.981 40.0281H148.436C148.702 40.0281 149.014 40.0281 149.28 40.1514C149.678 40.3315 149.745 40.6729 149.745 40.872C149.745 41.1185 149.659 41.4219 149.356 41.6021C149.081 41.7633 148.739 41.7727 148.512 41.7727H147.981V40.0281ZM152.156 36.4536V42.7778H155.342V41.7158H153.388V36.4536H152.156ZM159.701 36.4536H156.193V42.7778H159.701V41.7158H157.425V39.9902H159.606V38.9283H157.425V37.5155H159.701V36.4536ZM160.631 42.1615C160.631 42.5787 160.953 42.901 161.371 42.901C161.788 42.901 162.11 42.5787 162.11 42.1615C162.11 41.7443 161.788 41.4219 161.371 41.4219C160.953 41.4219 160.631 41.7443 160.631 42.1615ZM167.874 41.109C167.505 41.5452 166.983 41.8012 166.395 41.8012C165.333 41.8012 164.253 41.0427 164.253 39.6394C164.253 38.4732 165.077 37.4302 166.348 37.4302C166.575 37.4302 167.296 37.4776 167.874 38.1413V36.7001C167.296 36.3873 166.765 36.3114 166.319 36.3114C165.419 36.3114 164.632 36.5484 163.997 37.1458C163.456 37.6483 162.982 38.4732 162.982 39.6204C162.982 40.5496 163.266 41.3366 163.997 42.0382C164.527 42.5407 165.201 42.92 166.31 42.92C166.993 42.92 167.495 42.7493 167.874 42.5502V41.109ZM172.08 36.3114C170.088 36.3114 168.704 37.6957 168.704 39.6204C168.704 41.5452 170.088 42.92 172.08 42.92C174.071 42.92 175.455 41.5452 175.455 39.6204C175.455 37.6957 174.071 36.3114 172.08 36.3114ZM172.08 41.8012C170.847 41.8012 169.975 40.9004 169.975 39.6204C169.975 38.3404 170.847 37.4302 172.08 37.4302C173.312 37.4302 174.184 38.3404 174.184 39.6204C174.184 40.9004 173.312 41.8012 172.08 41.8012ZM176.269 42.7778H177.52L178.165 38.8809L179.786 42.7778H180.203L181.901 38.8809L182.469 42.7778H183.721L182.659 36.4536H181.768L180.014 40.4738L178.336 36.4536H177.444L176.269 42.7778Z" fill="#1D2433"/>
<rect x="84" y="32.5926" width="24.8889" height="14.8148" rx="7.40741" fill="#FFB4C4"/>
</g>
<g clip-path="url(#clip1)">
<path d="M258.356 37.5155V36.4536H254.279V37.5155H255.701V42.7778H256.934V37.5155H258.356ZM259.137 36.4536V42.7778H260.37V40.2367H260.522L262.209 42.7778H263.745L261.773 40.1135C262.076 40.0566 262.304 39.9523 262.465 39.8385C262.958 39.5067 263.205 38.9662 263.205 38.3499C263.205 37.8758 263.063 37.3354 262.579 36.9277C262.285 36.6812 261.839 36.4536 260.967 36.4536H259.137ZM260.37 37.4587H260.74C260.967 37.4587 261.934 37.4681 261.934 38.4068C261.934 39.336 260.958 39.3644 260.721 39.3644H260.37V37.4587ZM268.886 42.7778H270.214L267.568 36.4536H266.601L263.88 42.7778H265.217L265.776 41.4504H268.327L268.886 42.7778ZM266.165 40.4453L267.066 38.1698L267.967 40.4453H266.165ZM272.185 42.7778V38.549L276.034 42.7778H276.887V36.4536H275.655V40.6729L271.805 36.4536H270.952V42.7778H272.185ZM280.222 42.7778H281.474L282.119 38.8809L283.74 42.7778H284.157L285.854 38.8809L286.423 42.7778H287.675L286.613 36.4536H285.722L283.967 40.4738L282.289 36.4536H281.398L280.222 42.7778ZM293.099 42.7778H294.427L291.781 36.4536H290.814L288.093 42.7778H289.43L289.989 41.4504H292.54L293.099 42.7778ZM290.378 40.4453L291.279 38.1698L292.18 40.4453H290.378ZM294.961 36.4536V40.3221C294.961 40.9194 295.056 41.5262 295.435 42.0098C295.89 42.6071 296.687 42.92 297.502 42.92C298.318 42.92 299.114 42.6071 299.569 42.0098C299.949 41.5262 300.043 40.9194 300.043 40.3221V36.4536H298.811V40.4264C298.811 40.9099 298.65 41.2038 298.507 41.365C298.327 41.5831 297.995 41.8012 297.502 41.8012C297.009 41.8012 296.677 41.5831 296.497 41.365C296.355 41.2038 296.194 40.9099 296.194 40.4264V36.4536H294.961ZM307.115 37.5155V36.4536H303.038V37.5155H304.461V42.7778H305.693V37.5155H307.115ZM307.896 36.4536V42.7778H309.129V40.2367H309.281L310.968 42.7778H312.504L310.532 40.1135C310.836 40.0566 311.063 39.9523 311.224 39.8385C311.718 39.5067 311.964 38.9662 311.964 38.3499C311.964 37.8758 311.822 37.3354 311.338 36.9277C311.044 36.6812 310.599 36.4536 309.726 36.4536H307.896ZM309.129 37.4587H309.499C309.726 37.4587 310.694 37.4681 310.694 38.4068C310.694 39.336 309.717 39.3644 309.48 39.3644H309.129V37.4587ZM313.341 36.4536V42.7778H314.574V36.4536H313.341ZM321.643 37.5155V36.4536H317.566V37.5155H318.988V42.7778H320.221V37.5155H321.643ZM326.358 42.7778H327.686L325.041 36.4536H324.073L321.352 42.7778H322.689L323.249 41.4504H325.799L326.358 42.7778ZM323.637 40.4453L324.538 38.1698L325.439 40.4453H323.637ZM328.102 42.7778H329.353L329.998 38.8809L331.62 42.7778H332.037L333.734 38.8809L334.303 42.7778H335.554L334.492 36.4536H333.601L331.847 40.4738L330.169 36.4536H329.278L328.102 42.7778Z" fill="#1D2433"/>
<rect x="217.481" y="32.5926" width="24.8889" height="14.8148" rx="7.40741" fill="#1574F6"/>
</g>
<defs>
<filter id="filter0_f" x="0.324669" y="1.32467" width="414.351" height="163.351" filterUnits="userSpaceOnUse" color-interpolation-filters="sRGB">
<feFlood flood-opacity="0" result="BackgroundImageFix"/>
<feBlend mode="normal" in="SourceGraphic" in2="BackgroundImageFix" result="shape"/>
<feGaussianBlur stdDeviation="35.3377" result="effect1_foregroundBlur"/>
</filter>
<clipPath id="clip0">
<rect width="101" height="15" fill="white" transform="translate(84 32.5926)"/>
</clipPath>
<clipPath id="clip1">
<rect width="120" height="15" fill="white" transform="translate(217.481 32.5926)"/>
</clipPath>
</defs>
</svg>
